Sora-Thin.ufo
<glyph name="exclam" format="2">
  <advance width="256"/>
  <unicode hex="0021"/>
  <outline>
    <contour>
      <point x="112" y="170" type="line"/>
      <point x="144" y="170" type="line"/>
      <point x="144" y="730" type="line"/>
      <point x="112" y="730" type="line"/>
    </contour>
    <contour>
      <point x="104" y="0" type="line"/>
      <point x="152" y="0" type="line"/>
      <point x="152" y="54" type="line"/>
      <point x="104" y="54" type="line"/>
    </contour>
  </outline>
</glyph>
<glyph name="at" format="2">
  <advance width="1116"/>
  <unicode hex="0040"/>
  <outline>
    <contour>
      <point x="563" y="-236" type="curve" smooth="yes"/>
      <point x="605" y="-236"/>
      <point x="635" y="-232"/>
      <point x="668" y="-225" type="curve"/>
      <point x="668" y="-195" type="line"/>
      <point x="634" y="-202"/>
      <point x="603" y="-206"/>
      <point x="563" y="-206" type="curve" smooth="yes"/>
      <point x="295" y="-206"/>
      <point x="118" y="-24"/>
      <point x="118" y="254" type="curve" smooth="yes"/>
      <point x="118" y="533"/>
      <point x="304" y="718"/>
      <point x="569" y="718" type="curve" smooth="yes"/>
      <point x="817" y="718"/>
      <point x="1008" y="565"/>
      <point x="1008" y="303" type="curve" smooth="yes"/>
      <point x="1008" y="143"/>
      <point x="946" y="48"/>
      <point x="856" y="48" type="curve" smooth="yes"/>
      <point x="809" y="48"/>
      <point x="754" y="73"/>
      <point x="754" y="175" type="curve" smooth="yes"/>
      <point x="754" y="472" type="line"/>
      <point x="728" y="472" type="line"/>
      <point x="728" y="279" type="line"/>
      <point x="744" y="279" type="line"/>
      <point x="736" y="407"/>
      <point x="651" y="479"/>
      <point x="542" y="479" type="curve" smooth="yes"/>
      <point x="421" y="479"/>
      <point x="334" y="388"/>
      <point x="334" y="259" type="curve" smooth="yes"/>
      <point x="334" y="249" type="line" smooth="yes"/>
      <point x="334" y="120"/>
      <point x="421" y="22"/>
      <point x="542" y="22" type="curve" smooth="yes"/>
      <point x="651" y="22"/>
      <point x="736" y="90"/>
      <point x="744" y="236" type="curve"/>
      <point x="728" y="236" type="line"/>
      <point x="728" y="175" type="line" smooth="yes"/>
      <point x="728" y="56"/>
      <point x="793" y="18"/>
      <point x="856" y="18" type="curve" smooth="yes"/>
      <point x="962" y="18"/>
      <point x="1040" y="127"/>
      <point x="1040" y="303" type="curve" smooth="yes"/>
      <point x="1040" y="581"/>
      <point x="837" y="748"/>
      <point x="568" y="748" type="curve" smooth="yes"/>
      <point x="284" y="748"/>
      <point x="86" y="548"/>
      <point x="86" y="255" type="curve" smooth="yes"/>
      <point x="86" y="-39"/>
      <point x="275" y="-236"/>
    </contour>
    <contour>
      <point x="542" y="52" type="curve" smooth="yes"/>
      <point x="441" y="52"/>
      <point x="366" y="132"/>
      <point x="366" y="254" type="curve" smooth="yes"/>
      <point x="366" y="376"/>
      <point x="441" y="449"/>
      <point x="542" y="449" type="curve" smooth="yes"/>
      <point x="635" y="449"/>
      <point x="722" y="385"/>
      <point x="722" y="260" type="curve" smooth="yes"/>
      <point x="722" y="248" type="line" smooth="yes"/>
      <point x="722" y="117"/>
      <point x="640" y="52"/>
    </contour>
  </outline>
</glyph>
<glyph name="A" format="2">
  <advance width="734"/>
  <unicode hex="0041"/>
  <anchor x="692" y="10" name="ogonek"/>
  <anchor x="362" y="730" name="top"/>
  <outline>
    <contour>
      <point x="42" y="0" type="line"/>
      <point x="74" y="0" type="line"/>
      <point x="348" y="715" type="line"/>
      <point x="322" y="700" type="line"/>
      <point x="400" y="700" type="line"/>
      <point x="374" y="715" type="line"/>
      <point x="659" y="0" type="line"/>
      <point x="692" y="0" type="line"/>
      <point x="401" y="730" type="line"/>
      <point x="323" y="730" type="line"/>
    </contour>
    <contour>
      <point x="160" y="260" type="line"/>
      <point x="569" y="260" type="line"/>
      <point x="557" y="290" type="line"/>
      <point x="171" y="290" type="line"/>
    </contour>
  </outline>
</glyph>
<glyph name="F" format="2">
  <advance width="560"/>
  <unicode hex="0046"/>
  <outline>
    <contour>
      <point x="130" y="0" type="line"/>
      <point x="162" y="0" type="line"/>
      <point x="162" y="730" type="line"/>
      <point x="130" y="730" type="line"/>
    </contour>
    <contour>
      <point x="143" y="360" type="line"/>
      <point x="486" y="362" type="line"/>
      <point x="486" y="392" type="line"/>
      <point x="143" y="391" type="line"/>
    </contour>
    <contour>
      <point x="143" y="701" type="line"/>
      <point x="508" y="701" type="line"/>
      <point x="508" y="731" type="line"/>
      <point x="143" y="730" type="line"/>
    </contour>
  </outline>
</glyph>
<glyph name="H" format="2">
  <advance width="810"/>
  <unicode hex="0048"/>
  <anchor x="405" y="0" name="bottom"/>
  <anchor x="405" y="606" name="center"/>
  <anchor x="405" y="730" name="top"/>
  <outline>
    <contour>
      <point x="648" y="0" type="line"/>
      <point x="680" y="0" type="line"/>
      <point x="680" y="730" type="line"/>
      <point x="648" y="730" type="line"/>
    </contour>
    <contour>
      <point x="130" y="0" type="line"/>
      <point x="162" y="0" type="line"/>
      <point x="162" y="730" type="line"/>
      <point x="130" y="730" type="line"/>
    </contour>
    <contour>
      <point x="150" y="345" type="line"/>
      <point x="660" y="345" type="line"/>
      <point x="660" y="375" type="line"/>
      <point x="150" y="375" type="line"/>
    </contour>
  </outline>
</glyph>
<glyph name="K" format="2">
  <advance width="617"/>
  <unicode hex="004B"/>
  <anchor x="356" y="0" name="bottom"/>
  <anchor x="323" y="730" name="top"/>
  <outline>
    <contour>
      <point x="586" y="0" type="line"/>
      <point x="629" y="0" type="line"/>
      <point x="216" y="403" type="line"/>
      <point x="217" y="374" type="line"/>
      <point x="549" y="730" type="line"/>
      <point x="510" y="730" type="line"/>
      <point x="158" y="352" type="line"/>
      <point x="226" y="352" type="line"/>
    </contour>
    <contour>
      <point x="130" y="0" type="line"/>
      <point x="162" y="0" type="line"/>
      <point x="162" y="730" type="line"/>
      <point x="130" y="730" type="line"/>
    </contour>
  </outline>
</glyph>
<glyph name="l" format="2">
  <advance width="250"/>
  <unicode hex="006C"/>
  <anchor x="126" y="0" name="bottom"/>
  <anchor x="126" y="480" name="center"/>
  <anchor x="88" y="730" name="top"/>
  <anchor x="144" y="534" name="topright"/>
  <outline>
    <contour>
      <point x="110" y="0" type="line"/>
      <point x="142" y="0" type="line"/>
      <point x="142" y="730" type="line"/>
      <point x="110" y="730" type="line"/>
    </contour>
    <contour>
      <point x="28" y="700" type="line"/>
      <point x="142" y="700" type="line"/>
      <point x="142" y="730" type="line"/>
      <point x="28" y="730" type="line"/>
    </contour>
  </outline>
</glyph>
<glyph name="m" format="2">
  <advance width="950"/>
  <unicode hex="006D"/>
  <outline>
    <contour>
      <point x="108" y="0" type="line"/>
      <point x="140" y="0" type="line"/>
      <point x="140" y="316" type="line" smooth="yes"/>
      <point x="140" y="425"/>
      <point x="201" y="504"/>
      <point x="307" y="504" type="curve" smooth="yes"/>
      <point x="411" y="504"/>
      <point x="462" y="426"/>
      <point x="462" y="320" type="curve" smooth="yes"/>
      <point x="462" y="0" type="line"/>
      <point x="494" y="0" type="line"/>
      <point x="494" y="316" type="line" smooth="yes"/>
      <point x="494" y="425"/>
      <point x="555" y="504"/>
      <point x="661" y="504" type="curve" smooth="yes"/>
      <point x="765" y="504"/>
      <point x="816" y="426"/>
      <point x="816" y="320" type="curve" smooth="yes"/>
      <point x="816" y="0" type="line"/>
      <point x="848" y="0" type="line"/>
      <point x="848" y="312" type="line" smooth="yes"/>
      <point x="848" y="442"/>
      <point x="788" y="534"/>
      <point x="664" y="534" type="curve" smooth="yes"/>
      <point x="662" y="534" type="line" smooth="yes"/>
      <point x="536" y="534"/>
      <point x="476" y="437"/>
      <point x="476" y="312" type="curve"/>
      <point x="492" y="312" type="line"/>
      <point x="492" y="442"/>
      <point x="434" y="534"/>
      <point x="310" y="534" type="curve" smooth="yes"/>
      <point x="308" y="534" type="line" smooth="yes"/>
      <point x="182" y="534"/>
      <point x="122" y="437"/>
      <point x="122" y="312" type="curve"/>
      <point x="134" y="312" type="line"/>
      <point x="134" y="521" type="line"/>
      <point x="108" y="521" type="line"/>
    </contour>
  </outline>
</glyph>
<glyph name="s" format="2">
  <advance width="516"/>
  <unicode hex="0073"/>
  <note>
s
</note>
  <anchor x="253" y="0" name="bottom"/>
  <anchor x="257" y="520" name="top"/>
  <outline>
    <contour>
      <point x="257" y="-14" type="curve" smooth="yes"/>
      <point x="384" y="-14"/>
      <point x="452" y="55"/>
      <point x="452" y="140" type="curve" smooth="yes"/>
      <point x="452" y="228"/>
      <point x="381" y="272"/>
      <point x="290" y="282" type="curve" smooth="yes"/>
      <point x="226" y="289" type="line" smooth="yes"/>
      <point x="154" y="297"/>
      <point x="116" y="339"/>
      <point x="116" y="390" type="curve" smooth="yes"/>
      <point x="116" y="451"/>
      <point x="159" y="506"/>
      <point x="257" y="506" type="curve" smooth="yes"/>
      <point x="347" y="506"/>
      <point x="399" y="457"/>
      <point x="398" y="392" type="curve"/>
      <point x="430" y="392" type="line"/>
      <point x="430" y="477"/>
      <point x="360" y="536"/>
      <point x="257" y="536" type="curve" smooth="yes"/>
      <point x="146" y="536"/>
      <point x="84" y="469"/>
      <point x="84" y="392" type="curve" smooth="yes"/>
      <point x="84" y="317"/>
      <point x="136" y="270"/>
      <point x="223" y="260" type="curve" smooth="yes"/>
      <point x="287" y="253" type="line" smooth="yes"/>
      <point x="363" y="245"/>
      <point x="420" y="210"/>
      <point x="420" y="142" type="curve" smooth="yes"/>
      <point x="420" y="74"/>
      <point x="371" y="16"/>
      <point x="257" y="16" type="curve" smooth="yes"/>
      <point x="142" y="16"/>
      <point x="94" y="73"/>
      <point x="94" y="142" type="curve"/>
      <point x="62" y="142" type="line"/>
      <point x="62" y="52"/>
      <point x="130" y="-14"/>
    </contour>
  </outline>
</glyph>
<glyph name="v" format="2">
  <advance width="524"/>
  <unicode hex="0076"/>
  <outline>
    <contour>
      <point x="233" y="0" type="line"/>
      <point x="265" y="0" type="line"/>
      <point x="71" y="520" type="line"/>
      <point x="38" y="520" type="line"/>
    </contour>
    <contour>
      <point x="245" y="0" type="line"/>
      <point x="297" y="0" type="line"/>
      <point x="297" y="30" type="line"/>
      <point x="245" y="30" type="line"/>
    </contour>
    <contour>
      <point x="276" y="0" type="line"/>
      <point x="307" y="0" type="line"/>
      <point x="482" y="520" type="line"/>
      <point x="450" y="520" type="line"/>
    </contour>
  </outline>
</glyph>
<glyph name="cent" format="2">
  <advance width="616"/>
  <unicode hex="00A2"/>
  <outline>
    <contour>
      <point x="325" y="108" type="curve" smooth="yes"/>
      <point x="443" y="108"/>
      <point x="538" y="176"/>
      <point x="560" y="279" type="curve"/>
      <point x="528" y="279" type="line"/>
      <point x="509" y="197"/>
      <point x="433" y="138"/>
      <point x="325" y="138" type="curve" smooth="yes"/>
      <point x="181" y="138"/>
      <point x="104" y="243"/>
      <point x="104" y="367" type="curve" smooth="yes"/>
      <point x="104" y="491"/>
      <point x="179" y="592"/>
      <point x="323" y="592" type="curve" smooth="yes"/>
      <point x="430" y="592"/>
      <point x="498" y="536"/>
      <point x="518" y="462" type="curve"/>
      <point x="550" y="462" type="line"/>
      <point x="524" y="560"/>
      <point x="440" y="622"/>
      <point x="323" y="622" type="curve" smooth="yes"/>
      <point x="161" y="622"/>
      <point x="72" y="503"/>
      <point x="72" y="373" type="curve" smooth="yes"/>
      <point x="72" y="361" type="line" smooth="yes"/>
      <point x="72" y="231"/>
      <point x="163" y="108"/>
    </contour>
    <contour>
      <point x="310" y="0" type="line"/>
      <point x="340" y="0" type="line"/>
      <point x="340" y="118" type="line"/>
      <point x="310" y="118" type="line"/>
    </contour>
    <contour>
      <point x="310" y="612" type="line"/>
      <point x="340" y="612" type="line"/>
      <point x="340" y="730" type="line"/>
      <point x="310" y="730" type="line"/>
    </contour>
  </outline>
</glyph>
<glyph name="yen" format="2">
  <advance width="572"/>
  <unicode hex="00A5"/>
  <outline>
    <contour>
      <point x="261" y="319" type="line"/>
      <point x="323" y="319" type="line"/>
      <point x="546" y="730" type="line"/>
      <point x="513" y="730" type="line"/>
      <point x="299" y="333" type="line"/>
      <point x="321" y="340" type="line"/>
      <point x="265" y="340" type="line"/>
      <point x="286" y="333" type="line"/>
      <point x="62" y="730" type="line"/>
      <point x="28" y="730" type="line"/>
    </contour>
    <contour>
      <point x="276" y="0" type="line"/>
      <point x="306" y="0" type="line"/>
      <point x="306" y="326" type="line"/>
      <point x="276" y="326" type="line"/>
    </contour>
    <contour>
      <point x="58" y="174" type="line"/>
      <point x="524" y="174" type="line"/>
      <point x="524" y="202" type="line"/>
      <point x="58" y="202" type="line"/>
    </contour>
    <contour>
      <point x="58" y="312" type="line"/>
      <point x="524" y="312" type="line"/>
      <point x="524" y="340" type="line"/>
      <point x="58" y="340" type="line"/>
    </contour>
  </outline>
</glyph>
<glyph name="multiply" format="2">
  <advance width="584"/>
  <unicode hex="00D7"/>
  <outline>
    <contour>
      <point x="475" y="145" type="line"/>
      <point x="90" y="528" type="line"/>
      <point x="109" y="547" type="line"/>
      <point x="494" y="164" type="line"/>
    </contour>
    <contour>
      <point x="109" y="146" type="line"/>
      <point x="90" y="165" type="line"/>
      <point x="475" y="546" type="line"/>
      <point x="494" y="527" type="line"/>
    </contour>
  </outline>
</glyph>
<glyph name="Oslash" format="2">
  <advance width="872"/>
  <unicode hex="00D8"/>
  <anchor x="437" y="0" name="bottom"/>
  <anchor x="437" y="365" name="center"/>
  <anchor x="567" y="10" name="ogonek"/>
  <anchor x="437" y="730" name="top"/>
  <outline>
    <contour>
      <point x="137" y="-32" type="line"/>
      <point x="173" y="-32" type="line"/>
      <point x="735" y="764" type="line"/>
      <point x="699" y="764" type="line"/>
    </contour>
    <component base="O"/>
  </outline>
</glyph>
<glyph name="oslash" format="2">
  <advance width="654"/>
  <unicode hex="00F8"/>
  <anchor x="327" y="0" name="bottom"/>
  <anchor x="327" y="260" name="center"/>
  <anchor x="440" y="9" name="ogonek"/>
  <anchor x="327" y="520" name="top"/>
  <outline>
    <contour>
      <point x="100" y="-36" type="line"/>
      <point x="134" y="-36" type="line"/>
      <point x="564" y="572" type="line"/>
      <point x="530" y="572" type="line"/>
    </contour>
    <component base="o"/>
  </outline>
</glyph>
<glyph name="thorn" format="2">
  <advance width="674"/>
  <unicode hex="00FE"/>
  <outline>
    <contour>
      <point x="108" y="-200" type="line"/>
      <point x="140" y="-200" type="line"/>
      <point x="140" y="166" type="line"/>
      <point x="120" y="231" type="line"/>
      <point x="120" y="104"/>
      <point x="208" y="-16"/>
      <point x="361" y="-16" type="curve" smooth="yes"/>
      <point x="526" y="-16"/>
      <point x="612" y="127"/>
      <point x="612" y="257" type="curve" smooth="yes"/>
      <point x="612" y="263" type="line" smooth="yes"/>
      <point x="612" y="401"/>
      <point x="522" y="536"/>
      <point x="361" y="536" type="curve" smooth="yes"/>
      <point x="214" y="536"/>
      <point x="118" y="426"/>
      <point x="118" y="293" type="curve"/>
      <point x="140" y="360" type="line"/>
      <point x="140" y="730" type="line"/>
      <point x="108" y="730" type="line"/>
    </contour>
    <contour>
      <point x="359" y="14" type="curve" smooth="yes"/>
      <point x="223" y="14"/>
      <point x="138" y="117"/>
      <point x="138" y="233" type="curve" smooth="yes"/>
      <point x="138" y="287" type="line" smooth="yes"/>
      <point x="138" y="411"/>
      <point x="229" y="506"/>
      <point x="359" y="506" type="curve" smooth="yes"/>
      <point x="499" y="506"/>
      <point x="580" y="392"/>
      <point x="580" y="260" type="curve" smooth="yes"/>
      <point x="580" y="136"/>
      <point x="503" y="14"/>
    </contour>
  </outline>
</glyph>
<glyph name="eng" format="2">
  <advance width="626"/>
  <unicode hex="014B"/>
  <anchor x="316" y="0" name="bottom"/>
  <anchor x="321" y="520" name="top"/>
  <outline>
    <contour>
      <point x="325" y="-202" type="line"/>
      <point x="397" y="-202" type="line" smooth="yes"/>
      <point x="488" y="-202"/>
      <point x="524" y="-160"/>
      <point x="524" y="-56" type="curve" smooth="yes"/>
      <point x="524" y="20" type="line"/>
      <point x="492" y="20" type="line"/>
      <point x="492" y="-70" type="line" smooth="yes"/>
      <point x="492" y="-138"/>
      <point x="464" y="-172"/>
      <point x="409" y="-172" type="curve" smooth="yes"/>
      <point x="325" y="-172" type="line"/>
    </contour>
    <component base="n"/>
  </outline>
</glyph>
<glyph name="Tbar" format="2">
  <advance width="576"/>
  <unicode hex="0166"/>
  <anchor x="288" y="0" name="bottom"/>
  <anchor x="288" y="365" name="center"/>
  <anchor x="288" y="730" name="top"/>
  <outline>
    <contour>
      <point x="100" y="362" type="line"/>
      <point x="476" y="362" type="line"/>
      <point x="476" y="390" type="line"/>
      <point x="100" y="390" type="line"/>
    </contour>
    <component base="T"/>
  </outline>
</glyph>
<glyph name="brevecomb" format="2">
  <unicode hex="0306"/>
  <anchor x="129" y="520" name="_top"/>
  <anchor x="129" y="796" name="top"/>
  <outline>
    <contour>
      <point x="129" y="608" type="curve" smooth="yes"/>
      <point x="213" y="608"/>
      <point x="254" y="674"/>
      <point x="258" y="796" type="curve"/>
      <point x="228" y="796" type="line"/>
      <point x="222" y="692"/>
      <point x="198" y="634"/>
      <point x="129" y="634" type="curve" smooth="yes"/>
      <point x="61" y="634"/>
      <point x="36" y="692"/>
      <point x="30" y="796" type="curve"/>
      <point x="0" y="796" type="line"/>
      <point x="4" y="674"/>
      <point x="45" y="608"/>
    </contour>
  </outline>
</glyph>
<glyph name="caroncomb" format="2">
  <unicode hex="030C"/>
  <anchor x="127" y="520" name="_top"/>
  <anchor x="126" y="796" name="top"/>
  <outline>
    <contour>
      <point x="104" y="612" type="line"/>
      <point x="152" y="612" type="line"/>
      <point x="252" y="796" type="line"/>
      <point x="220" y="796" type="line"/>
      <point x="132" y="634" type="line"/>
      <point x="124" y="634" type="line"/>
      <point x="32" y="796" type="line"/>
      <point x="0" y="796" type="line"/>
    </contour>
  </outline>
</glyph>
<glyph name="cedillacomb" format="2">
  <unicode hex="0327"/>
  <anchor x="119" y="0" name="_bottom"/>
  <anchor x="130" y="-300" name="bottom"/>
  <outline>
    <contour>
      <point x="128" y="-222" type="curve" smooth="yes"/>
      <point x="192" y="-222"/>
      <point x="228" y="-192"/>
      <point x="228" y="-142" type="curve" smooth="yes"/>
      <point x="228" y="-99"/>
      <point x="195" y="-66"/>
      <point x="132" y="-66" type="curve" smooth="yes"/>
      <point x="121" y="-66" type="line"/>
      <point x="132" y="-85" type="line"/>
      <point x="132" y="10" type="line"/>
      <point x="106" y="10" type="line"/>
      <point x="106" y="-92" type="line"/>
      <point x="132" y="-92" type="line" smooth="yes"/>
      <point x="179" y="-92"/>
      <point x="198" y="-113"/>
      <point x="198" y="-142" type="curve" smooth="yes"/>
      <point x="198" y="-178"/>
      <point x="174" y="-194"/>
      <point x="128" y="-194" type="curve" smooth="yes"/>
      <point x="106" y="-194"/>
      <point x="81" y="-191"/>
      <point x="61" y="-186" type="curve"/>
      <point x="61" y="-214" type="line"/>
      <point x="79" y="-219"/>
      <point x="103" y="-222"/>
    </contour>
  </outline>
</glyph>
<glyph name="emdash" format="2">
  <advance width="882"/>
  <unicode hex="2014"/>
  <outline>
    <contour>
      <point x="18" y="264" type="line"/>
      <point x="864" y="264" type="line"/>
      <point x="864" y="292" type="line"/>
      <point x="18" y="292" type="line"/>
    </contour>
  </outline>
</glyph>
<glyph name="dagger" format="2">
  <advance width="500"/>
  <unicode hex="2020"/>
  <outline>
    <contour>
      <point x="235" y="-200" type="line"/>
      <point x="265" y="-200" type="line"/>
      <point x="265" y="393" type="line"/>
      <point x="235" y="393" type="line"/>
    </contour>
    <contour>
      <point x="60" y="492" type="line"/>
      <point x="440" y="492" type="line"/>
      <point x="440" y="520" type="line"/>
      <point x="60" y="520" type="line"/>
    </contour>
    <contour>
      <point x="235" y="510" type="line"/>
      <point x="265" y="510" type="line"/>
      <point x="265" y="730" type="line"/>
      <point x="235" y="730" type="line"/>
    </contour>
  </outline>
</glyph>
<glyph name="euro" format="2">
  <advance width="686"/>
  <unicode hex="20AC"/>
  <outline>
    <contour>
      <point x="408" y="-11" type="curve" smooth="yes"/>
      <point x="556" y="-11"/>
      <point x="630" y="71"/>
      <point x="636" y="185" type="curve"/>
      <point x="606" y="185" type="line"/>
      <point x="601" y="89"/>
      <point x="539" y="19"/>
      <point x="408" y="19" type="curve" smooth="yes"/>
      <point x="250" y="19"/>
      <point x="156" y="123"/>
      <point x="156" y="365" type="curve" smooth="yes"/>
      <point x="156" y="607"/>
      <point x="243" y="711"/>
      <point x="398" y="711" type="curve" smooth="yes"/>
      <point x="524" y="711"/>
      <point x="594" y="641"/>
      <point x="600" y="545" type="curve"/>
      <point x="630" y="545" type="line"/>
      <point x="624" y="656"/>
      <point x="544" y="741"/>
      <point x="398" y="741" type="curve" smooth="yes"/>
      <point x="223" y="741"/>
      <point x="124" y="617"/>
      <point x="124" y="372" type="curve" smooth="yes"/>
      <point x="124" y="358" type="line" smooth="yes"/>
      <point x="124" y="115"/>
      <point x="227" y="-11"/>
    </contour>
    <contour>
      <point x="26" y="273" type="line"/>
      <point x="470" y="273" type="line"/>
      <point x="470" y="301" type="line"/>
      <point x="26" y="301" type="line"/>
    </contour>
    <contour>
      <point x="44" y="411" type="line"/>
      <point x="488" y="411" type="line"/>
      <point x="488" y="439" type="line"/>
      <point x="44" y="439" type="line"/>
    </contour>
  </outline>
</glyph>
<glyph name="J.salt" format="2">
  <advance width="575"/>
  <anchor x="265" y="0" name="bottom"/>
  <anchor x="437" y="730" name="top"/>
  <outline>
    <contour>
      <point x="264" y="-19" type="curve" smooth="yes"/>
      <point x="380" y="-19"/>
      <point x="453" y="49"/>
      <point x="453" y="173" type="curve" smooth="yes"/>
      <point x="453" y="730" type="line"/>
      <point x="421" y="730" type="line"/>
      <point x="421" y="169" type="line" smooth="yes"/>
      <point x="421" y="57"/>
      <point x="354" y="11"/>
      <point x="264" y="11" type="curve" smooth="yes"/>
      <point x="174" y="11"/>
      <point x="106" y="57"/>
      <point x="106" y="169" type="curve" smooth="yes"/>
      <point x="106" y="305" type="line"/>
      <point x="74" y="305" type="line"/>
      <point x="74" y="173" type="line" smooth="yes"/>
      <point x="74" y="49"/>
      <point x="148" y="-19"/>
    </contour>
  </outline>
</glyph>
<glyph name="asterisk.part" format="2">
  <advance width="184.60465"/>
  <outline>
    <contour>
      <point x="161" y="332" type="line"/>
      <point x="178" y="362" type="line"/>
      <point x="30" y="446" type="line"/>
      <point x="30" y="494" type="line"/>
      <point x="178" y="578" type="line"/>
      <point x="161" y="608" type="line"/>
      <point x="0" y="509" type="line"/>
      <point x="0" y="431" type="line"/>
    </contour>
  </outline>
</glyph>
<glyph name="caroncomb.case" format="2">
  <anchor x="132" y="730" name="_top"/>
  <anchor x="132" y="940" name="top"/>
  <outline>
    <contour>
      <point x="106" y="802" type="line"/>
      <point x="157" y="802" type="line"/>
      <point x="263" y="940" type="line"/>
      <point x="230" y="940" type="line"/>
      <point x="142" y="824" type="line"/>
      <point x="122" y="824" type="line"/>
      <point x="34" y="940" type="line"/>
      <point x="0" y="940" type="line"/>
    </contour>
  </outline>
</glyph>
<glyph name="cent.tnum" format="2">
  <advance width="626"/>
  <outline>
    <contour>
      <point x="325" y="108" type="curve" smooth="yes"/>
      <point x="441" y="108"/>
      <point x="536" y="176"/>
      <point x="558" y="279" type="curve"/>
      <point x="526" y="279" type="line"/>
      <point x="507" y="197"/>
      <point x="431" y="138"/>
      <point x="325" y="138" type="curve" smooth="yes"/>
      <point x="183" y="138"/>
      <point x="106" y="243"/>
      <point x="106" y="367" type="curve" smooth="yes"/>
      <point x="106" y="491"/>
      <point x="181" y="592"/>
      <point x="323" y="592" type="curve" smooth="yes"/>
      <point x="428" y="592"/>
      <point x="496" y="536"/>
      <point x="516" y="462" type="curve"/>
      <point x="548" y="462" type="line"/>
      <point x="522" y="560"/>
      <point x="438" y="622"/>
      <point x="323" y="622" type="curve" smooth="yes"/>
      <point x="163" y="622"/>
      <point x="74" y="503"/>
      <point x="74" y="373" type="curve" smooth="yes"/>
      <point x="74" y="361" type="line" smooth="yes"/>
      <point x="74" y="231"/>
      <point x="165" y="108"/>
    </contour>
    <contour>
      <point x="310" y="0" type="line"/>
      <point x="340" y="0" type="line"/>
      <point x="340" y="118" type="line"/>
      <point x="310" y="118" type="line"/>
    </contour>
    <contour>
      <point x="310" y="612" type="line"/>
      <point x="340" y="612" type="line"/>
      <point x="340" y="730" type="line"/>
      <point x="310" y="730" type="line"/>
    </contour>
  </outline>
</glyph>
<glyph name="divide.tnum" format="2">
  <advance width="626"/>
  <outline>
    <contour>
      <point x="100" y="331" type="line"/>
      <point x="526" y="331" type="line"/>
      <point x="526" y="359" type="line"/>
      <point x="100" y="359" type="line"/>
    </contour>
    <contour>
      <point x="287" y="127" type="line"/>
      <point x="339" y="127" type="line"/>
      <point x="339" y="185" type="line"/>
      <point x="287" y="185" type="line"/>
    </contour>
    <contour>
      <point x="287" y="505" type="line"/>
      <point x="339" y="505" type="line"/>
      <point x="339" y="563" type="line"/>
      <point x="287" y="563" type="line"/>
    </contour>
  </outline>
</glyph>
<glyph name="equal.tnum" format="2">
  <advance width="626"/>
  <outline>
    <contour>
      <point x="107" y="399" type="line"/>
      <point x="519" y="399" type="line"/>
      <point x="519" y="427" type="line"/>
      <point x="107" y="427" type="line"/>
    </contour>
    <contour>
      <point x="107" y="242" type="line"/>
      <point x="519" y="242" type="line"/>
      <point x="519" y="270" type="line"/>
      <point x="107" y="270" type="line"/>
    </contour>
  </outline>
</glyph>
<glyph name="euro.tnum" format="2">
  <advance width="626"/>
  <outline>
    <contour>
      <point x="382" y="-11" type="curve" smooth="yes"/>
      <point x="524" y="-11"/>
      <point x="594" y="72"/>
      <point x="600" y="185" type="curve"/>
      <point x="570" y="185" type="line"/>
      <point x="565" y="90"/>
      <point x="507" y="19"/>
      <point x="382" y="19" type="curve" smooth="yes"/>
      <point x="230" y="19"/>
      <point x="140" y="125"/>
      <point x="140" y="365" type="curve" smooth="yes"/>
      <point x="140" y="605"/>
      <point x="223" y="711"/>
      <point x="372" y="711" type="curve" smooth="yes"/>
      <point x="492" y="711"/>
      <point x="558" y="640"/>
      <point x="564" y="545" type="curve"/>
      <point x="594" y="545" type="line"/>
      <point x="588" y="655"/>
      <point x="512" y="741"/>
      <point x="372" y="741" type="curve" smooth="yes"/>
      <point x="203" y="741"/>
      <point x="108" y="615"/>
      <point x="108" y="372" type="curve" smooth="yes"/>
      <point x="108" y="358" type="line" smooth="yes"/>
      <point x="108" y="117"/>
      <point x="207" y="-11"/>
    </contour>
    <contour>
      <point x="16" y="273" type="line"/>
      <point x="454" y="273" type="line"/>
      <point x="454" y="301" type="line"/>
      <point x="16" y="301" type="line"/>
    </contour>
    <contour>
      <point x="34" y="411" type="line"/>
      <point x="472" y="411" type="line"/>
      <point x="472" y="439" type="line"/>
      <point x="34" y="439" type="line"/>
    </contour>
  </outline>
</glyph>
<glyph name="f_f_i" format="2">
  <advance width="966"/>
  <outline>
    <contour>
      <point x="124" y="0" type="line"/>
      <point x="156" y="0" type="line"/>
      <point x="156" y="606" type="line" smooth="yes"/>
      <point x="156" y="670"/>
      <point x="192" y="706"/>
      <point x="260" y="706" type="curve" smooth="yes"/>
      <point x="332" y="706" type="line"/>
      <point x="332" y="736" type="line"/>
      <point x="270" y="736" type="line" smooth="yes"/>
      <point x="170" y="736"/>
      <point x="124" y="690"/>
      <point x="124" y="594" type="curve" smooth="yes"/>
    </contour>
    <contour>
      <point x="454" y="0" type="line"/>
      <point x="486" y="0" type="line"/>
      <point x="486" y="600" type="line" smooth="yes"/>
      <point x="486" y="664"/>
      <point x="522" y="700"/>
      <point x="590" y="700" type="curve" smooth="yes"/>
      <point x="662" y="700" type="line"/>
      <point x="662" y="730" type="line"/>
      <point x="600" y="730" type="line" smooth="yes"/>
      <point x="500" y="730"/>
      <point x="454" y="684"/>
      <point x="454" y="588" type="curve" smooth="yes"/>
    </contour>
    <contour>
      <point x="824" y="0" type="line"/>
      <point x="856" y="0" type="line"/>
      <point x="856" y="520" type="line"/>
      <point x="824" y="520" type="line"/>
    </contour>
    <contour>
      <point x="40" y="492" type="line"/>
      <point x="674" y="492" type="line"/>
      <point x="674" y="520" type="line"/>
      <point x="40" y="520" type="line"/>
    </contour>
    <contour>
      <point x="734" y="490" type="line"/>
      <point x="856" y="490" type="line"/>
      <point x="856" y="520" type="line"/>
      <point x="734" y="520" type="line"/>
    </contour>
    <contour>
      <point x="818" y="642" type="curve" smooth="yes"/>
      <point x="840" y="642"/>
      <point x="852" y="655"/>
      <point x="852" y="675" type="curve" smooth="yes"/>
      <point x="852" y="694"/>
      <point x="840" y="708"/>
      <point x="818" y="708" type="curve" smooth="yes"/>
      <point x="796" y="708"/>
      <point x="784" y="694"/>
      <point x="784" y="675" type="curve" smooth="yes"/>
      <point x="784" y="655"/>
      <point x="796" y="642"/>
    </contour>
  </outline>
</glyph>
<glyph name="f_f_j.salt" format="2">
  <advance width="964"/>
  <outline>
    <contour>
      <point x="130" y="0" type="line"/>
      <point x="162" y="0" type="line"/>
      <point x="162" y="636" type="line" smooth="yes"/>
      <point x="162" y="683"/>
      <point x="186" y="712"/>
      <point x="235" y="712" type="curve" smooth="yes"/>
      <point x="278" y="712"/>
      <point x="308" y="683"/>
      <point x="308" y="636" type="curve"/>
      <point x="338" y="636" type="line"/>
      <point x="338" y="692"/>
      <point x="300" y="742"/>
      <point x="235" y="742" type="curve" smooth="yes"/>
      <point x="164" y="742"/>
      <point x="130" y="692"/>
      <point x="130" y="632" type="curve" smooth="yes"/>
    </contour>
    <contour>
      <point x="462" y="0" type="line"/>
      <point x="494" y="0" type="line"/>
      <point x="494" y="640" type="line" smooth="yes"/>
      <point x="494" y="688"/>
      <point x="520" y="718"/>
      <point x="570" y="718" type="curve" smooth="yes"/>
      <point x="614" y="718"/>
      <point x="646" y="688"/>
      <point x="646" y="640" type="curve"/>
      <point x="676" y="640" type="line"/>
      <point x="676" y="697"/>
      <point x="636" y="748"/>
      <point x="570" y="748" type="curve" smooth="yes"/>
      <point x="498" y="748"/>
      <point x="462" y="697"/>
      <point x="462" y="636" type="curve" smooth="yes"/>
    </contour>
    <contour>
      <point x="670" y="-202" type="line"/>
      <point x="727" y="-202" type="line" smooth="yes"/>
      <point x="818" y="-202"/>
      <point x="854" y="-160"/>
      <point x="854" y="-56" type="curve" smooth="yes"/>
      <point x="854" y="520" type="line"/>
      <point x="822" y="520" type="line"/>
      <point x="822" y="-70" type="line" smooth="yes"/>
      <point x="822" y="-138"/>
      <point x="794" y="-172"/>
      <point x="739" y="-172" type="curve" smooth="yes"/>
      <point x="670" y="-172" type="line"/>
    </contour>
    <contour>
      <point x="44" y="492" type="line"/>
      <point x="670" y="492" type="line"/>
      <point x="670" y="520" type="line"/>
      <point x="44" y="520" type="line"/>
    </contour>
    <contour>
      <point x="736" y="490" type="line"/>
      <point x="854" y="490" type="line"/>
      <point x="854" y="520" type="line"/>
      <point x="736" y="520" type="line"/>
    </contour>
    <contour>
      <point x="816" y="652" type="curve" smooth="yes"/>
      <point x="838" y="652"/>
      <point x="850" y="665"/>
      <point x="850" y="685" type="curve" smooth="yes"/>
      <point x="850" y="704"/>
      <point x="838" y="718"/>
      <point x="816" y="718" type="curve" smooth="yes"/>
      <point x="794" y="718"/>
      <point x="782" y="704"/>
      <point x="782" y="685" type="curve" smooth="yes"/>
      <point x="782" y="665"/>
      <point x="794" y="652"/>
    </contour>
  </outline>
</glyph>
<glyph name="f_j" format="2">
  <advance width="646"/>
  <outline>
    <contour>
      <point x="124" y="0" type="line"/>
      <point x="156" y="0" type="line"/>
      <point x="156" y="606" type="line" smooth="yes"/>
      <point x="156" y="670"/>
      <point x="192" y="706"/>
      <point x="260" y="706" type="curve" smooth="yes"/>
      <point x="326" y="706" type="line"/>
      <point x="326" y="736" type="line"/>
      <point x="270" y="736" type="line" smooth="yes"/>
      <point x="170" y="736"/>
      <point x="124" y="690"/>
      <point x="124" y="594" type="curve" smooth="yes"/>
    </contour>
    <contour>
      <point x="352" y="-202" type="line"/>
      <point x="409" y="-202" type="line" smooth="yes"/>
      <point x="500" y="-202"/>
      <point x="536" y="-160"/>
      <point x="536" y="-56" type="curve" smooth="yes"/>
      <point x="536" y="520" type="line"/>
      <point x="504" y="520" type="line"/>
      <point x="504" y="-70" type="line" smooth="yes"/>
      <point x="504" y="-138"/>
      <point x="476" y="-172"/>
      <point x="421" y="-172" type="curve" smooth="yes"/>
      <point x="352" y="-172" type="line"/>
    </contour>
    <contour>
      <point x="40" y="492" type="line"/>
      <point x="338" y="492" type="line"/>
      <point x="338" y="520" type="line"/>
      <point x="40" y="520" type="line"/>
    </contour>
    <contour>
      <point x="412" y="490" type="line"/>
      <point x="536" y="490" type="line"/>
      <point x="536" y="520" type="line"/>
      <point x="412" y="520" type="line"/>
    </contour>
    <contour>
      <point x="498" y="652" type="curve" smooth="yes"/>
      <point x="520" y="652"/>
      <point x="532" y="665"/>
      <point x="532" y="685" type="curve" smooth="yes"/>
      <point x="532" y="704"/>
      <point x="520" y="718"/>
      <point x="498" y="718" type="curve" smooth="yes"/>
      <point x="476" y="718"/>
      <point x="464" y="704"/>
      <point x="464" y="685" type="curve" smooth="yes"/>
      <point x="464" y="665"/>
      <point x="476" y="652"/>
    </contour>
  </outline>
</glyph>
<glyph name="four.tnum" format="2">
  <advance width="626"/>
  <outline>
    <contour>
      <point x="68" y="200" type="line"/>
      <point x="584" y="200" type="line"/>
      <point x="584" y="228" type="line"/>
      <point x="103" y="228" type="line"/>
      <point x="96" y="238" type="line"/>
      <point x="410" y="718" type="line"/>
      <point x="388" y="736" type="line"/>
      <point x="68" y="246" type="line"/>
    </contour>
    <contour>
      <point x="448" y="0" type="line"/>
      <point x="480" y="0" type="line"/>
      <point x="480" y="508" type="line"/>
      <point x="448" y="508" type="line"/>
    </contour>
  </outline>
</glyph>
<glyph name="hungarumlautcomb.case" format="2">
  <anchor x="97" y="730" name="_top"/>
  <anchor x="173" y="940" name="top"/>
  <outline>
    <contour>
      <point x="142" y="802" type="line"/>
      <point x="172" y="802" type="line"/>
      <point x="258" y="940" type="line"/>
      <point x="226" y="940" type="line"/>
    </contour>
    <contour>
      <point x="0" y="802" type="line"/>
      <point x="30" y="802" type="line"/>
      <point x="117" y="940" type="line"/>
      <point x="85" y="940" type="line"/>
    </contour>
  </outline>
</glyph>
<glyph name="ringcomb.case" format="2">
  <anchor x="105" y="730" name="_top"/>
  <anchor x="105" y="942" name="top"/>
  <outline>
    <contour>
      <point x="105" y="780" type="curve" smooth="yes"/>
      <point x="173" y="780"/>
      <point x="210" y="829"/>
      <point x="210" y="880" type="curve" smooth="yes"/>
      <point x="210" y="932"/>
      <point x="173" y="980"/>
      <point x="105" y="980" type="curve" smooth="yes"/>
      <point x="37" y="980"/>
      <point x="0" y="932"/>
      <point x="0" y="880" type="curve" smooth="yes"/>
      <point x="0" y="829"/>
      <point x="37" y="780"/>
    </contour>
    <contour>
      <point x="105" y="806" type="curve" smooth="yes"/>
      <point x="53" y="806"/>
      <point x="28" y="841"/>
      <point x="28" y="880" type="curve" smooth="yes"/>
      <point x="28" y="920"/>
      <point x="53" y="954"/>
      <point x="105" y="954" type="curve" smooth="yes"/>
      <point x="157" y="954"/>
      <point x="182" y="920"/>
      <point x="182" y="880" type="curve" smooth="yes"/>
      <point x="182" y="841"/>
      <point x="157" y="806"/>
    </contour>
  </outline>
</glyph>
<glyph name="seven.tnum" format="2">
  <advance width="626"/>
  <outline>
    <contour>
      <point x="198" y="0" type="line"/>
      <point x="231" y="0" type="line"/>
      <point x="532" y="683" type="line"/>
      <point x="532" y="730" type="line"/>
      <point x="100" y="730" type="line"/>
      <point x="100" y="700" type="line"/>
      <point x="495" y="700" type="line"/>
      <point x="502" y="688" type="line"/>
    </contour>
    <contour>
      <point x="100" y="564" type="line"/>
      <point x="130" y="564" type="line"/>
      <point x="130" y="730" type="line"/>
      <point x="100" y="730" type="line"/>
    </contour>
  </outline>
</glyph>
<glyph name="seven.tnum.salt" format="2">
  <advance width="626"/>
  <outline>
    <contour>
      <point x="263" y="0" type="line"/>
      <point x="295" y="0" type="line"/>
      <point x="295" y="146" type="line" smooth="yes"/>
      <point x="295" y="379"/>
      <point x="362" y="541"/>
      <point x="536" y="670" type="curve"/>
      <point x="536" y="730" type="line"/>
      <point x="78" y="730" type="line"/>
      <point x="78" y="700" type="line"/>
      <point x="503" y="700" type="line"/>
      <point x="507" y="685" type="line"/>
      <point x="340" y="565"/>
      <point x="263" y="389"/>
      <point x="263" y="146" type="curve" smooth="yes"/>
    </contour>
  </outline>
</glyph>
<glyph name="six.tnum" format="2">
  <advance width="626"/>
  <outline>
    <contour>
      <point x="329" y="-16" type="curve" smooth="yes"/>
      <point x="487" y="-16"/>
      <point x="568" y="100"/>
      <point x="568" y="230" type="curve" smooth="yes"/>
      <point x="568" y="360"/>
      <point x="485" y="470"/>
      <point x="331" y="470" type="curve" smooth="yes"/>
      <point x="178" y="470"/>
      <point x="100" y="363"/>
      <point x="98" y="226" type="curve"/>
      <point x="110" y="226" type="line"/>
      <point x="110" y="349" type="line" smooth="yes"/>
      <point x="110" y="577"/>
      <point x="197" y="704"/>
      <point x="398" y="704" type="curve" smooth="yes"/>
      <point x="429" y="704"/>
      <point x="471" y="701"/>
      <point x="510" y="695" type="curve"/>
      <point x="510" y="725" type="line"/>
      <point x="471" y="731"/>
      <point x="434" y="734"/>
      <point x="401" y="734" type="curve" smooth="yes"/>
      <point x="178" y="734"/>
      <point x="82" y="601"/>
      <point x="82" y="351" type="curve" smooth="yes"/>
      <point x="82" y="321" type="line" smooth="yes"/>
      <point x="82" y="88"/>
      <point x="173" y="-16"/>
    </contour>
    <contour>
      <point x="329" y="14" type="curve" smooth="yes"/>
      <point x="190" y="14"/>
      <point x="121" y="123"/>
      <point x="121" y="228" type="curve" smooth="yes"/>
      <point x="121" y="347"/>
      <point x="192" y="440"/>
      <point x="329" y="440" type="curve" smooth="yes"/>
      <point x="468" y="440"/>
      <point x="536" y="346"/>
      <point x="536" y="230" type="curve" smooth="yes"/>
      <point x="536" y="114"/>
      <point x="466" y="14"/>
    </contour>
  </outline>
</glyph>
<glyph name="sterling.tnum" format="2">
  <advance width="626"/>
  <outline>
    <contour>
      <point x="160" y="0" type="line"/>
      <point x="192" y="0" type="line"/>
      <point x="192" y="493" type="line" smooth="yes"/>
      <point x="192" y="656"/>
      <point x="270" y="706"/>
      <point x="369" y="706" type="curve" smooth="yes"/>
      <point x="418" y="706"/>
      <point x="478" y="699"/>
      <point x="520" y="691" type="curve"/>
      <point x="520" y="721" type="line"/>
      <point x="479" y="729"/>
      <point x="420" y="736"/>
      <point x="373" y="736" type="curve" smooth="yes"/>
      <point x="239" y="736"/>
      <point x="160" y="658"/>
      <point x="160" y="493" type="curve" smooth="yes"/>
    </contour>
    <contour>
      <point x="76" y="0" type="line"/>
      <point x="568" y="0" type="line"/>
      <point x="568" y="28" type="line"/>
      <point x="76" y="28" type="line"/>
    </contour>
    <contour>
      <point x="82" y="332" type="line"/>
      <point x="436" y="332" type="line"/>
      <point x="436" y="360" type="line"/>
      <point x="82" y="360" type="line"/>
    </contour>
    <contour>
      <point x="536" y="0" type="line"/>
      <point x="568" y="0" type="line"/>
      <point x="568" y="150" type="line"/>
      <point x="536" y="150" type="line"/>
    </contour>
  </outline>
</glyph>
